<?xml version="1.0" encoding="UTF-8"?>
<!DOCTYPE svg PUBLIC "-//W3C//DTD SVG 1.1//EN" "http://www.w3.org/Graphics/SVG/1.1/DTD/svg11.dtd">
<svg xmlns="http://www.w3.org/2000/svg" version="1.1" width="8334px" height="2084px" style="shape-rendering:geometricPrecision; text-rendering:geometricPrecision; image-rendering:optimizeQuality; fill-rule:evenodd; clip-rule:evenodd" xmlns:xlink="http://www.w3.org/1999/xlink">
<g><path style="opacity:0.995" fill="#003362" d="M 1028.5,256.5 C 1195.81,251.892 1347.48,297.725 1483.5,394C 1543.3,437.624 1597.3,487.79 1645.5,544.5C 1636.68,553.155 1627.68,561.655 1618.5,570C 1695.88,675.29 1750.38,791.79 1782,919.5C 1831.9,1160.99 1777.23,1374.99 1618,1561.5C 1496.69,1696.56 1346.19,1781.06 1166.5,1815C 930.053,1851.91 722.053,1792.24 542.5,1636C 508.49,1605.32 476.49,1572.66 446.5,1538C 455.677,1529.66 464.677,1521.16 473.5,1512.5C 412.415,1428.34 364.915,1336.68 331,1237.5C 298.714,1137.54 286.714,1035.21 295,930.5C 308.358,799.528 353.691,681.194 431,575.5C 547.48,421.502 699.98,321.336 888.5,275C 934.8,264.88 981.466,258.714 1028.5,256.5 Z"/></g>
<g><path style="opacity:0.2" fill="#fefffe" d="M 1017.5,349.5 C 1180.46,346.547 1326.79,393.714 1456.5,491C 1501.08,525.236 1542.25,563.403 1580,605.5C 1588.33,597.833 1596.67,590.167 1605,582.5C 1671.87,682.718 1717.54,792.051 1742,910.5C 1780.11,1130.74 1726.45,1325.08 1581,1493.5C 1453.85,1631.54 1296.35,1710.7 1108.5,1731C 946.179,1742.66 797.846,1702.99 663.5,1612C 642.987,1596.91 622.654,1581.58 602.5,1566C 571.008,1537.84 540.841,1508.34 512,1477.5C 504.167,1484.67 496.333,1491.83 488.5,1499C 487.833,1499.67 487.167,1499.67 486.5,1499C 419.721,1398.91 374.221,1289.75 350,1171.5C 318.61,998.132 348.276,836.132 439,685.5C 554.224,509.464 715.724,400.964 923.5,360C 954.785,354.707 986.118,351.207 1017.5,349.5 Z"/></g>
<g><path style="opacity:1" fill="#003362" d="M 1010.5,429.5 C 1177.61,422.925 1325.28,472.425 1453.5,578C 1553.51,666.119 1618.01,775.619 1647,906.5C 1657.18,952.964 1662.68,999.964 1663.5,1047.5C 1653.84,1047.96 1644.17,1048.29 1634.5,1048.5C 1630.2,1125.48 1615.7,1200.48 1591,1273.5C 1555.67,1370.72 1499.17,1453.22 1421.5,1521C 1334.99,1592.23 1235.66,1634.56 1123.5,1648C 990.486,1662 864.819,1638 746.5,1576C 570.905,1475.23 468.071,1324.06 438,1122.5C 434.974,1097.9 432.807,1073.24 431.5,1048.5C 440.157,1047.72 448.823,1047.06 457.5,1046.5C 461.925,959.542 479.092,875.208 509,793.5C 540.526,716.897 584.693,648.73 641.5,589C 728.797,505.057 832.797,454.057 953.5,436C 972.585,433.238 991.585,431.071 1010.5,429.5 Z"/></g>
<g><path style="opacity:1" fill="#03a4e4" d="M 992.5,485.5 C 1133.97,479.839 1261.3,518.673 1374.5,602C 1463.73,671.246 1526.56,759.413 1563,866.5C 1583.22,926.123 1594.05,987.456 1595.5,1050.5C 1605.19,1049.87 1614.86,1049.87 1624.5,1050.5C 1615.68,1130.81 1595.18,1207.81 1563,1281.5C 1503.59,1410.24 1408.76,1502.41 1278.5,1558C 1244.2,1570.39 1209.2,1580.39 1173.5,1588C 1051.28,1607.87 933.95,1592.2 821.5,1541C 650.822,1454.97 546.655,1318.13 509,1130.5C 503.401,1101.76 499.901,1072.76 498.5,1043.5C 488.802,1043.78 479.136,1044.45 469.5,1045.5C 477.366,967.372 495.866,892.039 525,819.5C 566.011,722.961 628.844,643.794 713.5,582C 797.549,524.878 890.549,492.711 992.5,485.5 Z"/></g>
<g><path style="opacity:0.994" fill="#000000" d="M 2140.5,519.5 C 2179.5,519.5 2218.5,519.5 2257.5,519.5C 2257.5,630.833 2257.5,742.167 2257.5,853.5C 2339.17,853.5 2420.83,853.5 2502.5,853.5C 2502.5,742.167 2502.5,630.833 2502.5,519.5C 2541.83,519.5 2581.17,519.5 2620.5,519.5C 2620.67,630.834 2620.5,742.167 2620,853.5C 2620.48,876.791 2615.48,898.791 2605,919.5C 2597.49,931.669 2586.99,940.169 2573.5,945C 2557.3,950.506 2540.63,953.506 2523.5,954C 2427.83,954.667 2332.17,954.667 2236.5,954C 2212.79,953.907 2190.79,947.907 2170.5,936C 2157.9,925.638 2149.73,912.472 2146,896.5C 2143.4,885.643 2141.73,874.643 2141,863.5C 2140.5,748.834 2140.33,634.167 2140.5,519.5 Z"/></g>
<g><path style="opacity:0.995" fill="#000000" d="M 2803.5,519.5 C 2830.5,519.333 2857.5,519.5 2884.5,520C 2988.33,608.5 3092.17,697 3196,785.5C 3194.58,696.865 3194.08,608.199 3194.5,519.5C 3230.5,519.5 3266.5,519.5 3302.5,519.5C 3302.5,664.5 3302.5,809.5 3302.5,954.5C 3275.5,954.667 3248.5,954.5 3221.5,954C 3118,865.167 3014.5,776.333 2911,687.5C 2911.45,776.49 2911.62,865.49 2911.5,954.5C 2875.5,954.5 2839.5,954.5 2803.5,954.5C 2803.5,809.5 2803.5,664.5 2803.5,519.5 Z"/></g>
<g><path style="opacity:0.99" fill="#000000" d="M 3485.5,519.5 C 3524.83,519.5 3564.17,519.5 3603.5,519.5C 3603.5,664.5 3603.5,809.5 3603.5,954.5C 3564.17,954.5 3524.83,954.5 3485.5,954.5C 3485.5,809.5 3485.5,664.5 3485.5,519.5 Z"/></g>
<g><path style="opacity:0.994" fill="#000000" d="M 3681.5,519.5 C 3726.5,519.167 3771.5,519.5 3816.5,520.5C 3868.1,614.754 3920.1,708.754 3972.5,802.5C 4022.17,708.5 4071.83,614.5 4121.5,520.5C 4161.83,519.333 4202.16,519.167 4242.5,520C 4163.95,664.261 4085.79,808.761 4008,953.5C 3981.57,954.661 3955.07,954.828 3928.5,954C 3845.76,809.356 3763.43,664.522 3681.5,519.5 Z"/></g>
<g><path style="opacity:0.995" fill="#000000" d="M 4321.5,519.5 C 4467.17,519.5 4612.83,519.5 4758.5,519.5C 4758.5,550.833 4758.5,582.167 4758.5,613.5C 4651.83,613.5 4545.17,613.5 4438.5,613.5C 4438.5,636.167 4438.5,658.833 4438.5,681.5C 4500.83,681.5 4563.17,681.5 4625.5,681.5C 4625.5,712.5 4625.5,743.5 4625.5,774.5C 4563.17,774.5 4500.83,774.5 4438.5,774.5C 4438.5,800.833 4438.5,827.167 4438.5,853.5C 4546.5,853.5 4654.5,853.5 4762.5,853.5C 4762.5,887.167 4762.5,920.833 4762.5,954.5C 4615.5,954.5 4468.5,954.5 4321.5,954.5C 4321.5,809.5 4321.5,664.5 4321.5,519.5 Z"/></g>
<g><path style="opacity:0.996" fill="#000000" d="M 4913.5,519.5 C 5038.5,519.333 5163.5,519.5 5288.5,520C 5306.58,520.806 5323.58,525.473 5339.5,534C 5359.77,547.697 5370.94,566.864 5373,591.5C 5374.1,613.978 5374.6,636.478 5374.5,659C 5374.6,681.522 5374.1,704.022 5373,726.5C 5368.22,763.948 5347.39,786.782 5310.5,795C 5303.9,796.434 5297.23,797.434 5290.5,798C 5277.17,798.333 5263.83,798.667 5250.5,799C 5312.65,850.312 5374.65,901.812 5436.5,953.5C 5379.17,954.667 5321.84,954.833 5264.5,954C 5210.2,902.698 5156.2,851.031 5102.5,799C 5078.17,798.5 5053.84,798.333 5029.5,798.5C 5029.5,850.5 5029.5,902.5 5029.5,954.5C 4990.83,954.5 4952.17,954.5 4913.5,954.5C 4913.5,809.5 4913.5,664.5 4913.5,519.5 Z M 5029.5,613.5 C 5101.19,613.029 5172.86,613.529 5244.5,615C 5255.77,615.941 5260.93,622.108 5260,633.5C 5260.67,650.833 5260.67,668.167 5260,685.5C 5260.93,696.892 5255.77,703.059 5244.5,704C 5172.86,705.471 5101.19,705.971 5029.5,705.5C 5029.5,674.833 5029.5,644.167 5029.5,613.5 Z"/></g>
<g><path style="opacity:0.995" fill="#000000" d="M 5637.5,519.5 C 5727.5,519.333 5817.5,519.5 5907.5,520C 5930.31,520.615 5951.31,526.948 5970.5,539C 5985.53,552.889 5994.36,570.055 5997,590.5C 5998.95,606.774 5999.79,623.107 5999.5,639.5C 5963.87,647.991 5928.2,656.325 5892.5,664.5C 5892.5,647.833 5892.5,631.167 5892.5,614.5C 5811.83,614.5 5731.17,614.5 5650.5,614.5C 5650.5,636.167 5650.5,657.833 5650.5,679.5C 5736.17,679.333 5821.83,679.5 5907.5,680C 5925.39,680.537 5942.73,683.871 5959.5,690C 5981.95,700.033 5995.45,717.199 6000,741.5C 6002.08,750.726 6003.41,760.06 6004,769.5C 6004.92,804.854 6004.59,840.188 6003,875.5C 6000,918.827 5977.17,943.994 5934.5,951C 5925.56,952.575 5916.56,953.575 5907.5,954C 5813.83,954.667 5720.17,954.667 5626.5,954C 5605.11,953.79 5584.78,949.123 5565.5,940C 5550.82,930.971 5540.98,918.138 5536,901.5C 5533.82,893.949 5532.16,886.282 5531,878.5C 5529.08,860.554 5528.24,842.554 5528.5,824.5C 5564.12,816.91 5599.78,809.577 5635.5,802.5C 5635.5,819.5 5635.5,836.5 5635.5,853.5C 5723.17,853.5 5810.83,853.5 5898.5,853.5C 5898.5,829.833 5898.5,806.167 5898.5,782.5C 5810.17,782.667 5721.83,782.5 5633.5,782C 5613.53,781.01 5594.86,775.676 5577.5,766C 5564.66,756.505 5556.16,744.005 5552,728.5C 5548.81,717.04 5546.81,705.373 5546,693.5C 5545.33,665.5 5545.33,637.5 5546,609.5C 5546.55,588.295 5552.22,568.628 5563,550.5C 5572.54,537.983 5585.04,529.816 5600.5,526C 5612.79,522.762 5625.13,520.596 5637.5,519.5 Z"/></g>
<g><path style="opacity:0.99" fill="#000000" d="M 6176.5,519.5 C 6215.83,519.5 6255.17,519.5 6294.5,519.5C 6294.5,664.5 6294.5,809.5 6294.5,954.5C 6255.17,954.5 6215.83,954.5 6176.5,954.5C 6176.5,809.5 6176.5,664.5 6176.5,519.5 Z"/></g>
<g><path style="opacity:0.993" fill="#000000" d="M 6386.5,519.5 C 6549.5,519.5 6712.5,519.5 6875.5,519.5C 6875.5,551.833 6875.5,584.167 6875.5,616.5C 6813.5,616.5 6751.5,616.5 6689.5,616.5C 6689.5,729.167 6689.5,841.833 6689.5,954.5C 6650.17,954.5 6610.83,954.5 6571.5,954.5C 6571.5,841.833 6571.5,729.167 6571.5,616.5C 6509.83,616.5 6448.17,616.5 6386.5,616.5C 6386.5,584.167 6386.5,551.833 6386.5,519.5 Z"/></g>
<g><path style="opacity:0.993" fill="#000000" d="M 7070.5,519.5 C 7105.84,519.167 7141.17,519.5 7176.5,520.5C 7257.83,664.833 7339.17,809.167 7420.5,953.5C 7376.5,954.667 7332.5,954.833 7288.5,954C 7272.17,924.333 7255.83,894.667 7239.5,865C 7158.5,864.167 7077.5,864.333 6996.5,865.5C 6981.22,895.238 6965.55,924.738 6949.5,954C 6909.5,954.833 6869.5,954.667 6829.5,953.5C 6909.86,808.779 6990.19,664.112 7070.5,519.5 Z M 7119.5,636.5 C 7142.39,679.281 7165.06,722.281 7187.5,765.5C 7141.83,766.833 7096.17,766.833 7050.5,765.5C 7073.26,722.314 7096.26,679.314 7119.5,636.5 Z"/></g>
<g><path style="opacity:0.994" fill="#000000" d="M 7600.5,519.5 C 7690.5,519.333 7780.5,519.5 7870.5,520C 7894.23,520.343 7915.89,527.009 7935.5,540C 7952.35,556.878 7961.18,577.378 7962,601.5C 7962.83,614.18 7962.67,626.846 7961.5,639.5C 7926.6,648.307 7891.6,656.641 7856.5,664.5C 7856.5,647.833 7856.5,631.167 7856.5,614.5C 7775.83,614.5 7695.17,614.5 7614.5,614.5C 7614.5,636.167 7614.5,657.833 7614.5,679.5C 7699.83,679.333 7785.17,679.5 7870.5,680C 7892.68,680.169 7913.68,685.169 7933.5,695C 7951.53,708.2 7962.03,726.033 7965,748.5C 7967.95,771.227 7969.12,794.061 7968.5,817C 7968.82,838.222 7967.99,859.388 7966,880.5C 7960.59,923.914 7936.09,947.748 7892.5,952C 7885.19,952.95 7877.86,953.617 7870.5,954C 7776.83,954.667 7683.17,954.667 7589.5,954C 7571.61,953.463 7554.27,950.129 7537.5,944C 7517.52,935.356 7504.69,920.523 7499,899.5C 7492.92,874.826 7491.08,849.826 7493.5,824.5C 7528.45,816.91 7563.45,809.577 7598.5,802.5C 7598.5,819.5 7598.5,836.5 7598.5,853.5C 7686.5,853.5 7774.5,853.5 7862.5,853.5C 7862.5,829.833 7862.5,806.167 7862.5,782.5C 7774.17,782.667 7685.83,782.5 7597.5,782C 7578.78,781.237 7561.11,776.57 7544.5,768C 7528.03,757.277 7517.86,742.11 7514,722.5C 7512.13,714.252 7510.79,705.919 7510,697.5C 7509.33,666.833 7509.33,636.167 7510,605.5C 7510.92,584.812 7516.92,565.812 7528,548.5C 7538.77,536.697 7551.93,528.864 7567.5,525C 7578.54,522.545 7589.54,520.712 7600.5,519.5 Z"/></g>
<g><path style="opacity:1" fill="#e11015" d="M 729.5,718.5 C 944.167,718.5 1158.83,718.5 1373.5,718.5C 1373.5,933.5 1373.5,1148.5 1373.5,1363.5C 1158.83,1363.5 944.167,1363.5 729.5,1363.5C 729.5,1148.5 729.5,933.5 729.5,718.5 Z"/></g>
<g><path style="opacity:1" fill="#feef01" d="M 758.5,751.5 C 933.58,751.003 1108.58,751.503 1283.5,753C 1302.64,773.138 1322.14,792.972 1342,812.5C 1342.5,985.5 1342.67,1158.5 1342.5,1331.5C 1147.83,1331.5 953.167,1331.5 758.5,1331.5C 758.5,1138.17 758.5,944.833 758.5,751.5 Z"/></g>
<g><path style="opacity:1" fill="#feee00" d="M 1308.5,752.5 C 1319.32,751.505 1330.32,751.172 1341.5,751.5C 1341.67,762.838 1341.5,774.172 1341,785.5C 1329.94,774.605 1319.1,763.605 1308.5,752.5 Z"/></g>
<g><path style="opacity:1" fill="#023361" d="M 986.5,1194.5 C 984.167,1192.83 982.167,1190.83 980.5,1188.5C 1020.97,1190.9 1059.97,1184.73 1097.5,1170C 1121.52,1159.31 1141.35,1143.47 1157,1122.5C 1184.24,1077.74 1181.24,1035.07 1148,994.5C 1139.9,986.224 1131.06,978.891 1121.5,972.5C 1103.05,987.56 1083.71,1001.39 1063.5,1014C 1049.08,1021.55 1034.41,1028.55 1019.5,1035C 1008.47,1039.29 997.132,1042.46 985.5,1044.5C 991.766,1034.9 999.099,1026.24 1007.5,1018.5C 1034.43,1009.45 1058.26,995.113 1079,975.5C 1084.08,969.584 1088.58,963.25 1092.5,956.5C 1088.56,954.011 1084.23,952.177 1079.5,951C 1035.99,941.7 994.657,947.7 955.5,969C 946.133,974.695 937.633,981.528 930,989.5C 926.806,994.554 924.139,999.888 922,1005.5C 921.333,1009.5 921.333,1013.5 922,1017.5C 922.852,1018.57 923.685,1019.57 924.5,1020.5C 922.621,1023.11 920.288,1025.28 917.5,1027C 916.255,1027.79 914.922,1028.29 913.5,1028.5C 907.914,1016 908.414,1003.67 915,991.5C 925.185,977.32 938.352,966.82 954.5,960C 985.3,946.138 1017.63,938.138 1051.5,936C 1069.12,934.217 1086.79,933.384 1104.5,933.5C 1110.23,919.369 1114.4,904.703 1117,889.5C 1120.23,844.457 1100.4,814.957 1057.5,801C 1037.18,796.382 1016.84,796.382 996.5,801C 968.828,807.84 943.495,819.506 920.5,836C 901.979,849.847 884.645,865.18 868.5,882C 866.397,882.251 865.063,881.251 864.5,879C 878.886,856.975 895.886,836.975 915.5,819C 942.772,798.697 972.772,783.697 1005.5,774C 1039.46,765.861 1073.13,766.861 1106.5,777C 1158.97,796.173 1180.13,833.34 1170,888.5C 1167.28,898.716 1163.95,908.716 1160,918.5C 1155.04,928.753 1149.88,938.753 1144.5,948.5C 1182.58,959.079 1208.74,982.745 1223,1019.5C 1230.96,1051.13 1226.96,1081.13 1211,1109.5C 1185.05,1148.08 1149.55,1173.58 1104.5,1186C 1065.72,1196.25 1026.38,1199.09 986.5,1194.5 Z"/></g>
<g><path style="opacity:1" fill="#f9ed0c" d="M 1007.5,1018.5 C 1028.39,996.107 1052.05,977.274 1078.5,962C 1079.7,961.346 1079.7,960.846 1078.5,960.5C 1035.91,975.621 998.24,998.621 965.5,1029.5C 961.5,1029.5 957.5,1029.5 953.5,1029.5C 976.583,1006.62 1002.25,987.122 1030.5,971C 1041.56,965.138 1052.56,959.304 1063.5,953.5C 1012.96,966.935 966.628,989.268 924.5,1020.5C 923.685,1019.57 922.852,1018.57 922,1017.5C 921.333,1013.5 921.333,1009.5 922,1005.5C 924.139,999.888 926.806,994.554 930,989.5C 937.633,981.528 946.133,974.695 955.5,969C 994.657,947.7 1035.99,941.7 1079.5,951C 1084.23,952.177 1088.56,954.011 1092.5,956.5C 1088.58,963.25 1084.08,969.584 1079,975.5C 1058.26,995.113 1034.43,1009.45 1007.5,1018.5 Z"/></g>
<g><path style="opacity:1" fill="#63c1cb" d="M 1063.5,953.5 C 1064.53,952.152 1065.86,951.652 1067.5,952C 1066.44,953.188 1065.1,953.688 1063.5,953.5 Z"/></g>
<g><path style="opacity:1" fill="#2cbaea" d="M 1063.5,953.5 C 1052.56,959.304 1041.56,965.138 1030.5,971C 1002.25,987.122 976.583,1006.62 953.5,1029.5C 947.833,1033.83 942.833,1038.83 938.5,1044.5C 914.763,1070.8 899.263,1101.46 892,1136.5C 886.356,1202.39 914.189,1247.56 975.5,1272C 1010.3,1282.76 1045.64,1284.43 1081.5,1277C 1138.57,1263.3 1189.57,1237.63 1234.5,1200C 1235.17,1199.33 1235.83,1199.33 1236.5,1200C 1189.85,1247 1135.18,1281.33 1072.5,1303C 1033.64,1313.43 994.643,1314.1 955.5,1305C 889.285,1283.12 853.285,1237.46 847.5,1168C 847.808,1129.07 859.641,1094.24 883,1063.5C 892.652,1051.35 902.819,1039.68 913.5,1028.5C 914.922,1028.29 916.255,1027.79 917.5,1027C 920.288,1025.28 922.621,1023.11 924.5,1020.5C 966.628,989.268 1012.96,966.935 1063.5,953.5 Z"/></g>
<g><path style="opacity:1" fill="#2dbaea" d="M 1007.5,1018.5 C 999.099,1026.24 991.766,1034.9 985.5,1044.5C 959.744,1078.03 951.91,1115.36 962,1156.5C 966.368,1168.33 972.535,1179 980.5,1188.5C 982.167,1190.83 984.167,1192.83 986.5,1194.5C 1001.31,1209.58 1018.98,1220.08 1039.5,1226C 1067.37,1232.93 1095.37,1233.26 1123.5,1227C 1161.6,1217.62 1195.6,1200.28 1225.5,1175C 1226.17,1174.33 1226.83,1174.33 1227.5,1175C 1194.9,1208.25 1156.57,1232.58 1112.5,1248C 1071.55,1259.75 1031.55,1257.42 992.5,1241C 938.569,1211.71 915.402,1166.54 923,1105.5C 927.658,1083.68 936.824,1064.01 950.5,1046.5C 955.099,1040.56 960.099,1034.9 965.5,1029.5C 998.24,998.621 1035.91,975.621 1078.5,960.5C 1079.7,960.846 1079.7,961.346 1078.5,962C 1052.05,977.274 1028.39,996.107 1007.5,1018.5 Z"/></g>
<g><path style="opacity:1" fill="#feef01" d="M 980.5,1188.5 C 972.535,1179 966.368,1168.33 962,1156.5C 951.91,1115.36 959.744,1078.03 985.5,1044.5C 997.132,1042.46 1008.47,1039.29 1019.5,1035C 1034.41,1028.55 1049.08,1021.55 1063.5,1014C 1083.71,1001.39 1103.05,987.56 1121.5,972.5C 1131.06,978.891 1139.9,986.224 1148,994.5C 1181.24,1035.07 1184.24,1077.74 1157,1122.5C 1141.35,1143.47 1121.52,1159.31 1097.5,1170C 1059.97,1184.73 1020.97,1190.9 980.5,1188.5 Z"/></g>
<g><path style="opacity:1" fill="#033564" d="M 953.5,1029.5 C 957.5,1029.5 961.5,1029.5 965.5,1029.5C 960.099,1034.9 955.099,1040.56 950.5,1046.5C 946.418,1046.11 942.418,1045.44 938.5,1044.5C 942.833,1038.83 947.833,1033.83 953.5,1029.5 Z"/></g>
<g><path style="opacity:0.997" fill="#000000" d="M 2140.5,1107.5 C 2267.83,1107.33 2395.17,1107.5 2522.5,1108C 2547.79,1107.49 2571.12,1113.82 2592.5,1127C 2606.86,1138.53 2616.02,1153.37 2620,1171.5C 2621.54,1178.42 2622.54,1185.42 2623,1192.5C 2623.67,1216.83 2623.67,1241.17 2623,1265.5C 2620.34,1294.48 2606.17,1315.64 2580.5,1329C 2607.85,1344.5 2623.01,1368 2626,1399.5C 2626.93,1428.86 2626.6,1458.19 2625,1487.5C 2619.28,1515.22 2603.78,1535.38 2578.5,1548C 2557.11,1557.08 2534.78,1562.08 2511.5,1563C 2387.83,1563.5 2264.17,1563.67 2140.5,1563.5C 2140.5,1411.5 2140.5,1259.5 2140.5,1107.5 Z M 2260.5,1201.5 C 2337.85,1201.03 2415.19,1201.53 2492.5,1203C 2498.86,1203.43 2503.69,1206.27 2507,1211.5C 2508.13,1221.43 2508.63,1231.43 2508.5,1241.5C 2508.63,1251.57 2508.13,1261.57 2507,1271.5C 2506.29,1273.08 2505.46,1274.58 2504.5,1276C 2500.77,1278.13 2496.77,1279.47 2492.5,1280C 2415.19,1281.47 2337.86,1281.97 2260.5,1281.5C 2260.5,1254.83 2260.5,1228.17 2260.5,1201.5 Z M 2260.5,1376.5 C 2339.2,1376.02 2417.86,1376.52 2496.5,1378C 2506.51,1380.47 2511.34,1386.97 2511,1397.5C 2511.67,1411.83 2511.67,1426.17 2511,1440.5C 2511.11,1453.05 2504.95,1459.88 2492.5,1461C 2415.19,1462.47 2337.85,1462.97 2260.5,1462.5C 2260.5,1433.83 2260.5,1405.17 2260.5,1376.5 Z"/></g>
<g><path style="opacity:0.995" fill="#000000" d="M 2794.5,1107.5 C 2835.17,1107.5 2875.83,1107.5 2916.5,1107.5C 2916.5,1224.5 2916.5,1341.5 2916.5,1458.5C 3002.83,1458.5 3089.17,1458.5 3175.5,1458.5C 3175.5,1341.5 3175.5,1224.5 3175.5,1107.5C 3216.17,1107.5 3256.83,1107.5 3297.5,1107.5C 3297.67,1225.83 3297.5,1344.17 3297,1462.5C 3296.96,1485.03 3291.96,1506.36 3282,1526.5C 3271.63,1542.45 3257.13,1552.61 3238.5,1557C 3226.04,1560.3 3213.37,1562.3 3200.5,1563C 3097.17,1563.67 2993.83,1563.67 2890.5,1563C 2866.98,1562.7 2845.32,1556.37 2825.5,1544C 2811.37,1531.59 2802.54,1516.09 2799,1497.5C 2796.85,1486.94 2795.51,1476.27 2795,1465.5C 2794.5,1346.17 2794.33,1226.83 2794.5,1107.5 Z"/></g>
<g><path style="opacity:0.994" fill="#000000" d="M 3491.5,1107.5 C 3597.18,1107.05 3702.84,1107.55 3808.5,1109C 3854.48,1111.22 3897.48,1123.55 3937.5,1146C 3993.55,1182.88 4024.38,1235.04 4030,1302.5C 4036.14,1357.7 4026.14,1409.7 4000,1458.5C 3968.82,1511.2 3922.99,1543.37 3862.5,1555C 3843.65,1558.5 3824.65,1560.84 3805.5,1562C 3700.84,1563.45 3596.18,1563.95 3491.5,1563.5C 3491.5,1411.5 3491.5,1259.5 3491.5,1107.5 Z M 3613.5,1208.5 C 3673.5,1208.33 3733.5,1208.5 3793.5,1209C 3869.05,1214.72 3906.72,1255.56 3906.5,1331.5C 3906.83,1357.67 3901,1382.33 3889,1405.5C 3878.17,1422.5 3863.34,1434.67 3844.5,1442C 3817.68,1451.56 3790.01,1456.9 3761.5,1458C 3712.17,1458.5 3662.83,1458.67 3613.5,1458.5C 3613.5,1375.17 3613.5,1291.83 3613.5,1208.5 Z"/></g>
<g><path style="opacity:0.995" fill="#000000" d="M 4189.5,1107.5 C 4230.17,1107.5 4270.83,1107.5 4311.5,1107.5C 4311.5,1259.5 4311.5,1411.5 4311.5,1563.5C 4270.83,1563.5 4230.17,1563.5 4189.5,1563.5C 4189.5,1411.5 4189.5,1259.5 4189.5,1107.5 Z"/></g>
<g><path style="opacity:0.995" fill="#000000" d="M 4824.5,1107.5 C 4865.17,1107.5 4905.83,1107.5 4946.5,1107.5C 4946.5,1224.5 4946.5,1341.5 4946.5,1458.5C 5052.83,1458.5 5159.17,1458.5 5265.5,1458.5C 5265.5,1493.5 5265.5,1528.5 5265.5,1563.5C 5118.5,1563.5 4971.5,1563.5 4824.5,1563.5C 4824.5,1411.5 4824.5,1259.5 4824.5,1107.5 Z"/></g>
<g><path style="opacity:0.995" fill="#000000" d="M 5373.5,1107.5 C 5414.17,1107.5 5454.83,1107.5 5495.5,1107.5C 5495.5,1224.5 5495.5,1341.5 5495.5,1458.5C 5581.5,1458.5 5667.5,1458.5 5753.5,1458.5C 5753.5,1341.5 5753.5,1224.5 5753.5,1107.5C 5794.17,1107.5 5834.83,1107.5 5875.5,1107.5C 5875.67,1229.5 5875.5,1351.5 5875,1473.5C 5874.05,1492.64 5869.05,1510.64 5860,1527.5C 5849.77,1542.87 5835.61,1552.71 5817.5,1557C 5805.04,1560.3 5792.37,1562.3 5779.5,1563C 5676.17,1563.67 5572.83,1563.67 5469.5,1563C 5447.86,1562.51 5427.53,1557.17 5408.5,1547C 5394.37,1536.86 5384.87,1523.36 5380,1506.5C 5376.71,1494.71 5374.71,1482.71 5374,1470.5C 5373.5,1349.5 5373.33,1228.5 5373.5,1107.5 Z"/></g>
<g><path style="opacity:0.996" fill="#000000" d="M 6070.5,1107.5 C 6111.17,1107.5 6151.83,1107.5 6192.5,1107.5C 6192.5,1163.5 6192.5,1219.5 6192.5,1275.5C 6287.83,1275.5 6383.17,1275.5 6478.5,1275.5C 6478.5,1219.5 6478.5,1163.5 6478.5,1107.5C 6519.5,1107.5 6560.5,1107.5 6601.5,1107.5C 6601.5,1259.5 6601.5,1411.5 6601.5,1563.5C 6560.5,1563.5 6519.5,1563.5 6478.5,1563.5C 6478.5,1501.5 6478.5,1439.5 6478.5,1377.5C 6383.17,1377.5 6287.83,1377.5 6192.5,1377.5C 6192.5,1439.5 6192.5,1501.5 6192.5,1563.5C 6151.83,1563.5 6111.17,1563.5 6070.5,1563.5C 6070.5,1411.5 6070.5,1259.5 6070.5,1107.5 Z"/></g>
<g><path style="opacity:0.995" fill="#000000" d="M 6795.5,1107.5 C 6836.17,1107.5 6876.83,1107.5 6917.5,1107.5C 6917.5,1224.5 6917.5,1341.5 6917.5,1458.5C 7003.5,1458.5 7089.5,1458.5 7175.5,1458.5C 7175.5,1341.5 7175.5,1224.5 7175.5,1107.5C 7216.17,1107.5 7256.83,1107.5 7297.5,1107.5C 7297.67,1229.5 7297.5,1351.5 7297,1473.5C 7296.05,1492.65 7291.05,1510.65 7282,1527.5C 7271.77,1542.87 7257.61,1552.71 7239.5,1557C 7227.04,1560.3 7214.37,1562.3 7201.5,1563C 7098.17,1563.67 6994.83,1563.67 6891.5,1563C 6869.86,1562.51 6849.53,1557.17 6830.5,1547C 6816.37,1536.86 6806.87,1523.36 6802,1506.5C 6798.84,1495.03 6796.84,1483.37 6796,1471.5C 6795.5,1350.17 6795.33,1228.83 6795.5,1107.5 Z"/></g>
<g><path style="opacity:0.996" fill="#000000" d="M 7492.5,1107.5 C 7625.18,1107.03 7757.85,1107.53 7890.5,1109C 7916.18,1109.99 7938.01,1119.49 7956,1137.5C 7966.1,1150.77 7972.1,1165.77 7974,1182.5C 7975.11,1206.31 7975.61,1230.15 7975.5,1254C 7975.61,1277.85 7975.11,1301.69 7974,1325.5C 7968.57,1365.93 7945.74,1389.76 7905.5,1397C 7885.61,1399.82 7865.61,1401.15 7845.5,1401C 7910.02,1455.02 7974.69,1508.86 8039.5,1562.5C 7979.84,1563.67 7920.17,1563.83 7860.5,1563C 7803.83,1509 7747.17,1455 7690.5,1401C 7664.5,1400.5 7638.5,1400.33 7612.5,1400.5C 7612.5,1454.83 7612.5,1509.17 7612.5,1563.5C 7572.5,1563.5 7532.5,1563.5 7492.5,1563.5C 7492.5,1411.5 7492.5,1259.5 7492.5,1107.5 Z M 7612.5,1205.5 C 7683.5,1205.33 7754.5,1205.5 7825.5,1206C 7834.57,1205.75 7843.23,1207.41 7851.5,1211C 7853.04,1212.58 7854.21,1214.41 7855,1216.5C 7856.12,1229.12 7856.62,1241.79 7856.5,1254.5C 7856.63,1266.89 7856.13,1279.22 7855,1291.5C 7853.73,1297.06 7850.23,1300.23 7844.5,1301C 7839.22,1302.03 7833.88,1302.69 7828.5,1303C 7756.5,1303.5 7684.5,1303.67 7612.5,1303.5C 7612.5,1270.83 7612.5,1238.17 7612.5,1205.5 Z"/></g>
<g><path style="opacity:1" fill="#003564" d="M 658.5,1336.5 C 664.593,1336.14 670.593,1336.64 676.5,1338C 685.072,1344.98 690.739,1353.81 693.5,1364.5C 690.14,1364.62 686.807,1364.95 683.5,1365.5C 684.027,1354.24 678.86,1346.9 668,1343.5C 657.832,1345.33 653.499,1351.33 655,1361.5C 657.5,1368 662,1372.5 668.5,1375C 670.112,1375.72 671.612,1375.55 673,1374.5C 673.024,1378.1 672.024,1381.43 670,1384.5C 667.531,1382.35 664.698,1380.85 661.5,1380C 646.578,1371.32 642.745,1359.16 650,1343.5C 652.996,1341.27 655.829,1338.93 658.5,1336.5 Z"/></g>
<g><path style="opacity:1" fill="#003464" d="M 1430.5,1347.5 C 1443.67,1346.69 1448.34,1352.69 1444.5,1365.5C 1451.45,1365.44 1458.11,1365.44 1464.5,1365.5C 1462.21,1369.76 1459.21,1373.42 1455.5,1376.5C 1455.26,1375.75 1454.93,1374.92 1454.5,1374C 1449.16,1373.27 1443.83,1372.93 1438.5,1373C 1437.02,1375.44 1435.19,1377.61 1433,1379.5C 1435.19,1385 1439.36,1388.5 1445.5,1390C 1443,1393.17 1440.5,1396.33 1438,1399.5C 1437.69,1398.23 1437.19,1397.07 1436.5,1396C 1426.97,1388.3 1417.3,1380.8 1407.5,1373.5C 1414.26,1363.93 1421.93,1355.26 1430.5,1347.5 Z"/></g>
<g><path style="opacity:1" fill="#00a1e1" d="M 1432.5,1355.5 C 1437.53,1355.89 1439.37,1358.56 1438,1363.5C 1434.31,1367.85 1430.64,1372.19 1427,1376.5C 1424.17,1375 1422,1372.83 1420.5,1370C 1424,1364.67 1428,1359.84 1432.5,1355.5 Z"/></g>
<g><path style="opacity:1" fill="#003464" d="M 699.5,1369.5 C 700.251,1368.43 701.251,1368.26 702.5,1369C 710.534,1378.37 719.201,1387.03 728.5,1395C 726,1397.5 723.5,1400 721,1402.5C 720.667,1401.17 720.333,1399.83 720,1398.5C 713.968,1392.8 708.301,1386.8 703,1380.5C 700.982,1382.35 699.149,1384.35 697.5,1386.5C 701.42,1391.59 706.087,1395.76 711.5,1399C 709,1401.5 706.5,1404 704,1406.5C 703.667,1405.17 703.333,1403.83 703,1402.5C 699.333,1398.83 695.667,1395.17 692,1391.5C 689.65,1393.68 687.483,1396.02 685.5,1398.5C 691.542,1405.54 698.209,1411.88 705.5,1417.5C 703.183,1420.32 700.683,1422.98 698,1425.5C 697.667,1424.17 697.333,1422.83 697,1421.5C 688.284,1413.29 680.118,1404.62 672.5,1395.5C 683.11,1387.88 692.11,1379.21 699.5,1369.5 Z"/></g>
<g><path style="opacity:1" fill="#003464" d="M 1401.5,1381.5 C 1402.3,1382.95 1402.8,1384.62 1403,1386.5C 1410.07,1392.9 1416.41,1399.9 1422,1407.5C 1423.11,1412.61 1422.11,1417.28 1419,1421.5C 1414.76,1426.41 1409.92,1430.58 1404.5,1434C 1400.74,1434.74 1397.07,1434.4 1393.5,1433C 1385.98,1425.97 1378.31,1419.14 1370.5,1412.5C 1373.01,1408.64 1376.35,1405.97 1380.5,1404.5C 1380.34,1405.87 1380.51,1407.21 1381,1408.5C 1386.5,1414 1392,1419.5 1397.5,1425C 1408.62,1425.88 1413.78,1420.72 1413,1409.5C 1406.63,1403.47 1400.63,1397.14 1395,1390.5C 1394.28,1391.45 1393.45,1391.62 1392.5,1391C 1395.7,1387.96 1398.7,1384.8 1401.5,1381.5 Z"/></g>
<g><path style="opacity:1" fill="#003564" d="M 733.5,1402.5 C 742.069,1408.89 750.236,1415.89 758,1423.5C 762.064,1437.6 756.897,1443.27 742.5,1440.5C 740.989,1447.22 740.323,1453.89 740.5,1460.5C 736.65,1457.74 732.983,1454.74 729.5,1451.5C 730.325,1450.61 731.325,1450.28 732.5,1450.5C 733.253,1444.82 733.753,1439.15 734,1433.5C 731.372,1431.87 729.039,1429.87 727,1427.5C 723.303,1431.69 719.803,1436.03 716.5,1440.5C 713.683,1438.18 711.016,1435.68 708.5,1433C 710.96,1431.54 713.127,1429.71 715,1427.5C 719.957,1420.87 725.291,1414.54 731,1408.5C 732.559,1406.78 733.392,1404.78 733.5,1402.5 Z"/></g>
<g><path style="opacity:1" fill="#00a1e1" d="M 736.5,1415.5 C 737.922,1415.71 739.255,1416.21 740.5,1417C 744.814,1420.8 748.48,1424.97 751.5,1429.5C 751.24,1431.19 750.573,1432.69 749.5,1434C 746.581,1434.55 743.914,1433.88 741.5,1432C 737.686,1429.02 734.019,1425.85 730.5,1422.5C 732.523,1420.15 734.523,1417.81 736.5,1415.5 Z"/></g>
<g><path style="opacity:1" fill="#003564" d="M 1363.5,1419.5 C 1364.29,1420.61 1364.79,1421.94 1365,1423.5C 1371.05,1430.55 1376.72,1437.88 1382,1445.5C 1383.87,1447.71 1386.04,1449.54 1388.5,1451C 1385.94,1454.07 1382.94,1456.57 1379.5,1458.5C 1377.09,1453.35 1373.92,1448.69 1370,1444.5C 1364.44,1449.69 1358.61,1454.52 1352.5,1459C 1354.79,1461.74 1356.95,1464.58 1359,1467.5C 1360.72,1468.85 1362.55,1470.02 1364.5,1471C 1361.31,1473.69 1357.97,1476.19 1354.5,1478.5C 1353.78,1475.93 1352.61,1473.6 1351,1471.5C 1344.68,1464.19 1338.85,1456.53 1333.5,1448.5C 1332.27,1447.72 1330.94,1447.22 1329.5,1447C 1332.65,1444.26 1335.99,1441.76 1339.5,1439.5C 1341.73,1444.06 1344.73,1448.06 1348.5,1451.5C 1353.83,1447.17 1359.17,1442.83 1364.5,1438.5C 1362.86,1435.7 1361.03,1433.03 1359,1430.5C 1357.69,1429.23 1356.19,1428.23 1354.5,1427.5C 1357.52,1424.81 1360.52,1422.14 1363.5,1419.5 Z"/></g>
<g><path style="opacity:1" fill="#003564" d="M 769.5,1435.5 C 770.251,1434.43 771.251,1434.26 772.5,1435C 782.832,1440.33 791.665,1447.5 799,1456.5C 801.221,1468.56 797.055,1477.72 786.5,1484C 781.411,1484.83 776.411,1484.49 771.5,1483C 764.008,1477.42 756.341,1472.09 748.5,1467C 749.579,1466.04 750.745,1465.21 752,1464.5C 757.752,1455.33 763.752,1446.33 770,1437.5C 770.692,1436.56 770.525,1435.9 769.5,1435.5 Z"/></g>
<g><path style="opacity:1" fill="#00a2e2" d="M 774.5,1446.5 C 780.544,1448.36 785.71,1451.69 790,1456.5C 789.303,1477.43 780.47,1481.6 763.5,1469C 762.978,1468.44 762.645,1467.77 762.5,1467C 766.738,1460.27 770.738,1453.44 774.5,1446.5 Z"/></g>
<g><path style="opacity:1" fill="#003463" d="M 1321.5,1452.5 C 1326.29,1460.74 1331.13,1469.07 1336,1477.5C 1338.21,1482.98 1337.38,1487.98 1333.5,1492.5C 1328.82,1497.01 1323.49,1500.51 1317.5,1503C 1311.22,1504.82 1306.05,1503.32 1302,1498.5C 1297.67,1491.5 1293.33,1484.5 1289,1477.5C 1287.93,1476.81 1286.77,1476.31 1285.5,1476C 1288.74,1473.13 1292.24,1470.63 1296,1468.5C 1299.47,1478.28 1304.64,1487.11 1311.5,1495C 1318.15,1495.59 1323.32,1493.09 1327,1487.5C 1327.67,1485.5 1327.67,1483.5 1327,1481.5C 1323.7,1475.52 1320.37,1469.52 1317,1463.5C 1315.98,1460.94 1314.48,1459.6 1312.5,1459.5C 1315.35,1456.92 1318.35,1454.58 1321.5,1452.5 Z"/></g>
<g><path style="opacity:1" fill="#003464" d="M 821.5,1467.5 C 825.628,1468.73 829.295,1470.73 832.5,1473.5C 831.758,1474.29 830.925,1474.95 830,1475.5C 829.162,1489.58 828.828,1503.58 829,1517.5C 824.916,1514.87 820.75,1512.37 816.5,1510C 817.448,1509.52 818.448,1509.35 819.5,1509.5C 819.665,1506.48 819.498,1503.48 819,1500.5C 816.252,1498.54 813.418,1496.71 810.5,1495C 804.178,1491.45 800.178,1493.29 798.5,1500.5C 795.301,1498.14 791.968,1495.97 788.5,1494C 799.5,1486.33 810.5,1478.67 821.5,1471C 822.171,1470.01 822.171,1468.85 821.5,1467.5 Z"/></g>
<g><path style="opacity:1" fill="#009ddb" d="M 820.5,1480.5 C 821.811,1484.68 821.811,1489.02 820.5,1493.5C 817.006,1491.92 813.673,1490.09 810.5,1488C 813.734,1485.25 817.068,1482.75 820.5,1480.5 Z"/></g>
<g><path style="opacity:1" fill="#003565" d="M 853.5,1487.5 C 864.982,1487.41 874.316,1491.91 881.5,1501C 882.5,1501.33 883.5,1501.67 884.5,1502C 881.576,1504.95 878.242,1507.12 874.5,1508.5C 873.473,1501.64 869.473,1497.47 862.5,1496C 859.901,1495.23 857.401,1495.4 855,1496.5C 854.333,1497.5 854.333,1498.5 855,1499.5C 858.752,1502.63 862.919,1505.13 867.5,1507C 881.102,1519.27 879.102,1527.43 861.5,1531.5C 854.667,1529.85 848.334,1527.01 842.5,1523C 840.964,1519.96 838.631,1517.8 835.5,1516.5C 837.5,1513.83 839.833,1511.5 842.5,1509.5C 845.614,1515.1 850.281,1519.27 856.5,1522C 859.76,1522.78 862.927,1522.62 866,1521.5C 866.63,1519.1 865.797,1517.26 863.5,1516C 858.334,1513.25 853.334,1510.25 848.5,1507C 842.567,1498.67 844.234,1492.17 853.5,1487.5 Z"/></g>
<g><path style="opacity:1" fill="#003564" d="M 1257.5,1489.5 C 1258.79,1490.54 1258.79,1491.71 1257.5,1493C 1262.03,1501.61 1266.37,1510.28 1270.5,1519C 1278.07,1516.72 1285.4,1513.56 1292.5,1509.5C 1293.17,1508.5 1293.83,1507.5 1294.5,1506.5C 1296.8,1508.94 1298.47,1511.77 1299.5,1515C 1288.29,1520.18 1276.79,1525.68 1265,1531.5C 1260.84,1520.15 1255.68,1508.82 1249.5,1497.5C 1248.5,1496.83 1247.5,1496.17 1246.5,1495.5C 1250.38,1493.73 1254.05,1491.73 1257.5,1489.5 Z"/></g>
<g><path style="opacity:1" fill="#003565" d="M 1213.5,1508.5 C 1214.87,1508.34 1216.21,1508.51 1217.5,1509C 1216.45,1510.39 1216.28,1511.89 1217,1513.5C 1220.5,1524.52 1224.67,1535.19 1229.5,1545.5C 1226.19,1548.24 1222.52,1549.24 1218.5,1548.5C 1218.83,1547.83 1219.17,1547.17 1219.5,1546.5C 1215.56,1535.84 1211.72,1525.17 1208,1514.5C 1207.17,1513.67 1206.33,1512.83 1205.5,1512C 1208.37,1511.06 1211.04,1509.89 1213.5,1508.5 Z"/></g>
<g><path style="opacity:1" fill="#003564" d="M 914.5,1510.5 C 914.56,1509.96 914.893,1509.62 915.5,1509.5C 923.038,1512.11 930.705,1514.27 938.5,1516C 942.196,1517.45 945.696,1519.29 949,1521.5C 953.237,1528.85 951.737,1534.52 944.5,1538.5C 949.086,1544.72 948.419,1550.22 942.5,1555C 937.953,1556.55 933.287,1556.88 928.5,1556C 920.024,1553.25 911.691,1550.25 903.5,1547C 904.667,1546.5 905.5,1545.67 906,1544.5C 909.069,1533.79 912.236,1523.13 915.5,1512.5C 915.457,1511.58 915.124,1510.92 914.5,1510.5 Z"/></g>
<g><path style="opacity:1" fill="#009fde" d="M 922.5,1519.5 C 929.167,1520.42 935.5,1522.42 941.5,1525.5C 943.319,1529.11 942.319,1531.44 938.5,1532.5C 932.745,1531.02 927.078,1529.36 921.5,1527.5C 921.833,1524.83 922.167,1522.17 922.5,1519.5 Z"/></g>
<g><path style="opacity:1" fill="#003464" d="M 1183.5,1519.5 C 1194.6,1519.43 1201.43,1524.77 1204,1535.5C 1206.6,1546.4 1202.77,1553.9 1192.5,1558C 1184.22,1560.69 1175.88,1563.19 1167.5,1565.5C 1165.54,1554.62 1163.04,1543.62 1160,1532.5C 1159.33,1530.48 1158.16,1528.82 1156.5,1527.5C 1157.67,1526.42 1159,1525.58 1160.5,1525C 1168.18,1522.73 1175.85,1520.89 1183.5,1519.5 Z"/></g>
<g><path style="opacity:1" fill="#003565" d="M 963.5,1525.5 C 963.917,1524.88 964.584,1524.54 965.5,1524.5C 976.112,1526.42 986.612,1528.75 997,1531.5C 998.226,1531.36 999.393,1531.02 1000.5,1530.5C 1000.99,1534.23 1000.33,1537.9 998.5,1541.5C 997.646,1540.48 996.646,1539.64 995.5,1539C 988.232,1536.85 980.899,1535.02 973.5,1533.5C 972.368,1535.6 971.368,1537.76 970.5,1540C 970.905,1540.95 971.572,1541.61 972.5,1542C 976.211,1542.84 979.877,1543.84 983.5,1545C 985.112,1545.72 986.612,1545.55 988,1544.5C 988.966,1548.12 988.466,1551.45 986.5,1554.5C 985.646,1553.48 984.646,1552.64 983.5,1552C 978.823,1550.83 974.156,1549.66 969.5,1548.5C 967.168,1552.18 967.168,1555.68 969.5,1559C 977.222,1560.12 984.722,1561.96 992,1564.5C 992.667,1563.83 993.333,1563.17 994,1562.5C 994.094,1566.26 993.428,1569.93 992,1573.5C 990.829,1572.11 989.329,1571.27 987.5,1571C 976.388,1568.59 965.388,1565.76 954.5,1562.5C 956.131,1560.78 957.297,1558.78 958,1556.5C 959.853,1546.44 962.019,1536.44 964.5,1526.5C 964.376,1525.89 964.043,1525.56 963.5,1525.5 Z"/></g>
<g><path style="opacity:1" fill="#00a2e2" d="M 1178.5,1527.5 C 1192.41,1527.25 1197.58,1533.92 1194,1547.5C 1189.51,1552.16 1184.01,1554.83 1177.5,1555.5C 1175.57,1555.41 1174.41,1554.41 1174,1552.5C 1172.71,1545.51 1170.88,1538.67 1168.5,1532C 1168.91,1531.05 1169.57,1530.39 1170.5,1530C 1173.38,1529.45 1176.05,1528.62 1178.5,1527.5 Z"/></g>
<g><path style="opacity:1" fill="#003464" d="M 1141.5,1529.5 C 1143.17,1529.5 1144.83,1529.5 1146.5,1529.5C 1147.78,1540.49 1148.61,1551.49 1149,1562.5C 1145.86,1568.83 1140.7,1572.33 1133.5,1573C 1128.83,1573.67 1124.17,1573.67 1119.5,1573C 1116.97,1572.48 1114.8,1571.32 1113,1569.5C 1109.28,1559.52 1106.95,1549.18 1106,1538.5C 1105.25,1537.87 1104.42,1537.37 1103.5,1537C 1107.78,1535.67 1112.12,1535.01 1116.5,1535C 1115.57,1545.12 1117.07,1554.96 1121,1564.5C 1127.42,1567.59 1133.42,1566.92 1139,1562.5C 1140.02,1560.3 1140.52,1557.96 1140.5,1555.5C 1139.5,1547.19 1137.5,1539.19 1134.5,1531.5C 1136.97,1530.83 1139.3,1530.17 1141.5,1529.5 Z"/></g>
<g><path style="opacity:1" fill="#003565" d="M 1010.5,1533.5 C 1020.53,1534.8 1030.53,1536.3 1040.5,1538C 1047.15,1539.49 1050.15,1543.66 1049.5,1550.5C 1049.48,1552.63 1048.98,1554.63 1048,1556.5C 1044.96,1559.1 1041.46,1560.77 1037.5,1561.5C 1040.08,1567.66 1043.41,1573.33 1047.5,1578.5C 1042.67,1579.47 1038,1578.8 1033.5,1576.5C 1033.93,1575.71 1034.26,1574.87 1034.5,1574C 1032.58,1568.83 1029.92,1564.16 1026.5,1560C 1023.52,1559.5 1020.52,1559.34 1017.5,1559.5C 1016.39,1564.39 1016.39,1569.22 1017.5,1574C 1013.29,1574.92 1009.29,1574.42 1005.5,1572.5C 1005.81,1571.69 1006.31,1571.03 1007,1570.5C 1008.33,1561.82 1009.67,1553.16 1011,1544.5C 1011.68,1540.78 1011.51,1537.11 1010.5,1533.5 Z"/></g>
<g><path style="opacity:1" fill="#009fdf" d="M 918.5,1533.5 C 923.739,1535.52 929.072,1537.35 934.5,1539C 936.351,1540.68 938.018,1542.52 939.5,1544.5C 939,1545.5 938.5,1546.5 938,1547.5C 929.961,1549.44 922.461,1548.1 915.5,1543.5C 917.004,1540.31 918.004,1536.98 918.5,1533.5 Z"/></g>
<g><path style="opacity:1" fill="#003665" d="M 1055.5,1538.5 C 1067.93,1538.04 1080.27,1538.54 1092.5,1540C 1097.83,1545.33 1097.83,1550.67 1092.5,1556C 1096.8,1557.94 1098.8,1561.27 1098.5,1566C 1098.74,1568.89 1097.91,1571.39 1096,1573.5C 1092.76,1575.58 1089.26,1577.08 1085.5,1578C 1076.17,1579.4 1066.84,1579.57 1057.5,1578.5C 1058.09,1576.73 1058.42,1574.89 1058.5,1573C 1058.2,1561.37 1057.2,1549.87 1055.5,1538.5 Z"/></g>
<g><path style="opacity:1" fill="#00a1e1" d="M 1020.5,1542.5 C 1026.57,1543.34 1032.57,1544.51 1038.5,1546C 1041.81,1550.73 1040.65,1553.9 1035,1555.5C 1029.52,1554.26 1024.02,1553.09 1018.5,1552C 1019.21,1548.84 1019.87,1545.67 1020.5,1542.5 Z"/></g>
<g><path style="opacity:1" fill="#00a2e1" d="M 1079.5,1544.5 C 1082.27,1544.22 1084.77,1544.89 1087,1546.5C 1087.82,1548.7 1087.32,1550.53 1085.5,1552C 1079.29,1553.42 1072.95,1553.92 1066.5,1553.5C 1066.23,1550.88 1066.56,1548.38 1067.5,1546C 1071.69,1545.82 1075.69,1545.32 1079.5,1544.5 Z"/></g>
<g><path style="opacity:1" fill="#00a1e0" d="M 1067.5,1560.5 C 1074.26,1560.12 1080.92,1560.62 1087.5,1562C 1088.26,1563.51 1089.26,1564.85 1090.5,1566C 1089.74,1567.51 1088.74,1568.85 1087.5,1570C 1081.19,1571.52 1074.85,1571.69 1068.5,1570.5C 1067.58,1567.24 1067.25,1563.91 1067.5,1560.5 Z"/></g>
</svg>
